# xmcd
#
# Track frame offsets: 
#        150
#        24589
#        39381
#        51493
#        67155
#        82529
#        98489
#        111312
#        126556
#        140212
#        152757
#        171181
#        182717
#        195683
#        211580
#        227688
#        242306
#        260456
#        274513
#        292681
#        308315
#        324937
#
# Disc length: 4565 seconds
#
# Revision: 0
# Processed by: cddbd v1.5.1PL0 Copyright (c) Steve Scherf et al.
# Submitted via: ExactAudioCopy v0.95a5
#
DISCID=2611d316
DTITLE=Various Artist - Музыкайф
DYEAR=2005
DGENRE=Pop
TTITLE0=Reflex/18 (feat. Resourse)(Haiducii Remix)
TTITLE1=Фактор 2/На Танцполе
TTITLE2=Королёва Наташа/А По Камушкам
TTITLE3=Глюк'oza/Юра
TTITLE4=Маликов Дмитрий/С Чистого Листа
TTITLE5=Чай Вдвоём/Ты Не Одна (Kolya Smart Remix)
TTITLE6=Братья Гримм - Ресницы
TTITLE7=Корни/25-й Этаж
TTITLE8=Света/Не Надо Больше
TTITLE9=Билан Дима/Ты Должна Рядом Быть (Remix)
TTITLE10=Валерия/Маленький Самолёт (Remix)
TTITLE11=Тутси/Я Люблю Его (Euromixxx)
TTITLE12=Блестящие/Прости, Василий
TTITLE13=Звезды Дискотек/О Тебе, Весна
TTITLE14=Жуков Роман/Любви Планета
TTITLE15=Пропаганда/Стихи В Метро
TTITLE16=Руки Вверх!/Больно
TTITLE17=Дискотека Авария/Если Хочешь Остаться (Remix)
TTITLE18=Алексин/Зов Природы
TTITLE19=Фабрика/За Горизонт (feat. Иваншки International)
TTITLE20=Звери/Дело Не В Этом (feat. Neomaster)
TTITLE21=Ротару София/Белый Танец
EXTD=
EXTT0=
EXTT1=
EXTT2=
EXTT3=
EXTT4=
EXTT5=
EXTT6=
EXTT7=
EXTT8=
EXTT9=
EXTT10=
EXTT11=
EXTT12=
EXTT13=
EXTT14=
EXTT15=
EXTT16=
EXTT17=
EXTT18=
EXTT19=
EXTT20=
EXTT21=
PLAYORDER=
